<svg id="Capa_1" data-name="Capa 1" xmlns="http://www.w3.org/2000/svg" viewBox="0 0 2267.72 2267.72"><defs><style>.cls-1{fill:#c6e2ed;}.cls-2{fill:#e6e6e7;}.cls-3{fill:#4b4b70;}.cls-4{fill:#a0cfe6;}.cls-5{fill:#629abf;}.cls-6{fill:#8bb8dc;}.cls-7{fill:#f0f1f1;}.cls-8{fill:#c3dfed;}.cls-9{fill:#78abce;}.cls-10{fill:#be1e2c;}.cls-11{fill:#f7cf9c;}.cls-12{fill:#221f1f;}.cls-13{fill:#81b2d3;}.cls-14{fill:#fff;}.cls-15{fill:#343444;}.cls-16{fill:#d34a4a;}.cls-17{fill:#3d3d77;}.cls-18{fill:#262260;}.cls-19{fill:#ea5e5e;}.cls-20{fill:#d0d2d3;}.cls-21{fill:#ffba7f;}.cls-22{fill:#bbbdbf;}.cls-23{fill:#57585a;}.cls-24{fill:#929597;}.cls-25{fill:#3b2314;}.cls-26{fill:#d15c58;}.cls-27{fill:#f88976;}.cls-28{fill:#f69d5e;}.cls-29,.cls-30,.cls-31,.cls-32,.cls-33{fill:none;stroke:#221f1f;stroke-miterlimit:10;}.cls-29{stroke-width:9.97px;}.cls-30,.cls-32{stroke-linecap:round;}.cls-30{stroke-width:21.54px;}.cls-31{stroke-width:19.48px;}.cls-32{stroke-width:21.63px;}.cls-33{stroke-linecap:square;stroke-width:18px;}</style></defs><rect class="cls-1" width="2267.72" height="2267.72"/><path class="cls-2" d="M1502.94,470.57A11.08,11.08,0,1,0,1514,481.64,11.07,11.07,0,0,0,1502.94,470.57Z"/><path class="cls-3" d="M1502.94,475.57a6.08,6.08,0,1,0,6.07,6.07A6.08,6.08,0,0,0,1502.94,475.57Z"/><path class="cls-2" d="M1919,119.1a11.08,11.08,0,1,0,11.07,11.07A11.06,11.06,0,0,0,1919,119.1Z"/><circle class="cls-3" cx="1919.04" cy="130.17" r="6.07"/><path class="cls-2" d="M1502.94,119.15A11.08,11.08,0,1,0,1514,130.22,11.06,11.06,0,0,0,1502.94,119.15Z"/><path class="cls-3" d="M1502.94,124.15a6.08,6.08,0,1,0,6.07,6.07A6.07,6.07,0,0,0,1502.94,124.15Z"/><rect class="cls-4" y="1882.16" width="2267.72" height="76.06"/><rect class="cls-5" y="1958.22" width="2267.72" height="309.5"/><rect class="cls-6" x="1357.22" y="136.65" width="291.43" height="291.43"/><rect class="cls-7" x="1377.4" y="156.83" width="251.08" height="251.08"/><rect class="cls-6" x="1705.19" y="136.65" width="427.71" height="637.79"/><rect class="cls-7" x="1725.42" y="155.93" width="387.24" height="599.77"/><rect class="cls-6" x="1357.35" y="488.01" width="291.18" height="291.19"/><rect class="cls-7" x="1377.51" y="508.17" width="250.86" height="250.87"/><path class="cls-8" d="M1919,220.68c-68.57,0-124.16,16.36-124.16,36.56S1850.47,293.8,1919,293.8s124.17-16.37,124.17-36.56S1987.63,220.68,1919,220.68Z"/><rect class="cls-8" x="1751.46" y="366.65" width="150" height="11.42"/><rect class="cls-8" x="1751.46" y="390.94" width="150" height="11.43"/><rect class="cls-8" x="1751.46" y="415.22" width="150" height="11.43"/><rect class="cls-8" x="1751.46" y="439.51" width="150" height="11.42"/><rect class="cls-8" x="1751.46" y="463.8" width="150" height="11.43"/><rect class="cls-8" x="1751.46" y="488.08" width="150" height="11.43"/><rect class="cls-8" x="1751.46" y="538.79" width="150" height="11.42"/><rect class="cls-8" x="1751.46" y="563.08" width="150" height="11.43"/><rect class="cls-8" x="1751.46" y="587.37" width="150" height="11.43"/><rect class="cls-8" x="1751.46" y="611.65" width="150" height="11.43"/><rect class="cls-8" x="1751.46" y="635.94" width="150" height="11.43"/><rect class="cls-8" x="1751.46" y="660.22" width="150" height="11.43"/><rect class="cls-8" x="1940.03" y="366.65" width="150" height="11.42"/><rect class="cls-8" x="1940.03" y="390.94" width="150" height="11.43"/><rect class="cls-8" x="1940.03" y="415.22" width="150" height="11.43"/><rect class="cls-8" x="1940.03" y="439.51" width="150" height="11.42"/><rect class="cls-8" x="1940.03" y="463.8" width="150" height="11.43"/><rect class="cls-8" x="1940.03" y="488.08" width="150" height="11.43"/><polygon class="cls-6" points="1976.78 721.71 2017.89 697.9 2059 721.71 2059 594.09 1976.78 594.09 1976.78 721.71"/><path class="cls-4" d="M2017.89,536.94A57.15,57.15,0,1,0,2075,594.09,57.15,57.15,0,0,0,2017.89,536.94Z"/><path class="cls-6" d="M2017.89,553A41.11,41.11,0,1,0,2059,594.09,41.11,41.11,0,0,0,2017.89,553Z"/><path class="cls-4" d="M1549.76,222.16c-21.59-9.58-28,3-31.47,0-8.16-7.1-1.2-11.4,5.1-22.91,3.17-5.77,10.13-10.82,8.3-13.4-2.37-3.3-8.45-7.62-8.45-7.62l-16.3,19.66s-23.84,26.65-25.11,64.74-17.23,46.31-37.94,65.58-19.84,43.47-18.68,54.32c.8,7.5,16,1.37,16,1.37s-9.44-24.23,6.84-36.24,44.13,28.41,84.34,3.85C1577.29,324,1599.56,244.27,1549.76,222.16Z"/><path class="cls-6" d="M1522.35,304.75A15.24,15.24,0,1,0,1537.59,320,15.24,15.24,0,0,0,1522.35,304.75Z"/><path class="cls-6" d="M1487.64,320a8.1,8.1,0,1,0,8.1,8.09A8.09,8.09,0,0,0,1487.64,320Z"/><path class="cls-6" d="M1504.49,282.39a8.09,8.09,0,1,0,8.56,7.6A8.08,8.08,0,0,0,1504.49,282.39Z"/><path class="cls-6" d="M1528.3,270.3a6,6,0,1,0,6,5.95A6,6,0,0,0,1528.3,270.3Z"/><path class="cls-6" d="M1516.4,251.28a6,6,0,1,0,5.95,6A6,6,0,0,0,1516.4,251.28Z"/><path class="cls-4" d="M1470.1,614.08c-16.14-9.59-4.8,9.59-4.8,9.59s11.35,14.38,11.35,24.41-14.83,6.55-17,4.36-2.61,12.65-2.61,12.65,12.2-2.6,19.62-4.35,10.91,61,13.08,68.43,11.76,0,11.76,0S1486.24,623.66,1470.1,614.08Z"/><path class="cls-6" d="M1481,572.43c-4.94-14.58-40.64-25.72-61.54,3.32s-23.51,86.62-2.68,110.92,38.54,25.09,52.74,16c19.36-12.29-4.67-32.53-2.59-66.87S1490,598.71,1481,572.43Z"/><path class="cls-4" d="M1546.24,652.44c-2.19,2.19-17,5.67-17-4.36s11.35-24.41,11.35-24.41,11.33-19.18-4.81-9.59-31.38,115.09-31.38,115.09,9.59,7.43,11.76,0,5.67-70.18,13.08-68.43,19.62,4.35,19.62,4.35S1548.43,650.27,1546.24,652.44Z"/><path class="cls-6" d="M1524.85,572.43c-8.92,26.28,12,29.05,14.07,63.41s-22,54.58-2.58,66.87c14.21,9,31.92,8.27,52.74-16s18.24-81.87-2.68-110.92S1529.8,557.85,1524.85,572.43Z"/><rect class="cls-9" x="1151.77" y="1639.93" width="63.66" height="58.02"/><rect class="cls-9" x="1151.77" y="1861.36" width="63.66" height="29"/><rect class="cls-6" x="1161.39" y="1697.96" width="44.41" height="163.41"/><rect class="cls-9" x="983.58" y="1889.17" width="400.03" height="32.19"/><path class="cls-5" d="M983.59,1898.21a30,30,0,1,0,30,30A30,30,0,0,0,983.59,1898.21Z"/><path class="cls-5" d="M1383.61,1898.21a30,30,0,1,0,30,30A30,30,0,0,0,1383.61,1898.21Z"/><path class="cls-9" d="M1186.72,919.47c-106.23,0-237.45,60.5-237.45,158.6S1018,1536.14,1018,1536.14l349.93,4.78s50-365.16,50-454.05C1417.92,980,1293,919.47,1186.72,919.47Z"/><path class="cls-6" d="M1182.17,1500.09c-138,0-250,0-250,74.92,0,41.37,111.91,74.91,250,74.91s249.95-33.54,249.95-74.91C1432.12,1500.09,1320.22,1500.09,1182.17,1500.09Z"/><rect class="cls-6" x="205.67" y="1296.09" width="668.61" height="662.13"/><rect class="cls-6" x="1492.91" y="1296.09" width="162.46" height="662.13"/><polygon class="cls-7" points="1627.33 1227.14 1629.13 1230.2 1631.25 1227.56 1632.09 1219.6 1628.17 1219.19 1627.33 1227.14"/><polygon class="cls-10" points="1626.22 1222.97 1633.18 1223.72 1635.83 1213.14 1625.87 1211.98 1626.22 1222.97"/><path class="cls-6" d="M1656.83,972.72l-1.16-.13a9.94,9.94,0,0,0-10.92,8.84L1626.59,1153c-.54,5-3.75,59.78-1.65,61.68,1.07,1,9.2,2.12,11,.89s11.16-56.89,11.52-60.36l18.17-171.57A9.93,9.93,0,0,0,1656.83,972.72Z"/><path class="cls-4" d="M1644.75,981.43,1626.59,1153c-.54,5-3.75,59.78-1.65,61.68.55.49,3,1,5.5,1.29l25.75-243.32-.52-.06A9.94,9.94,0,0,0,1644.75,981.43Z"/><path class="cls-9" d="M1665.1,987.49l-21.9-2.32c-1.18-.12-2.22.47-2.31,1.34s-.64,1.5.55,1.63l23.33,2.46c1.19.13,2.21-.47,2.31-1.32S1666.28,987.61,1665.1,987.49Z"/><path class="cls-9" d="M1638.86,991c-.29,2.76-6,65.29-5.53,66.85s3.45-1.15,3.74-3.9a9.4,9.4,0,0,0-.87-4.64c.15,0,5.72-59.75,5.72-59.75l1.39-4.4S1639.59,984,1638.86,991Z"/><path class="cls-6" d="M1566.63,992.79a1.93,1.93,0,0,0-2.46-1.15l-11.5,4.11a1.94,1.94,0,0,0-1.15,2.47l4,11.06a1.93,1.93,0,0,0,2.46,1.14l11.49-4.11a1.93,1.93,0,0,0,1.16-2.45Z"/><polygon class="cls-11" points="1644.46 1232.57 1644.52 1209.72 1629.25 1215.19 1644.46 1232.57"/><polygon class="cls-12" points="1644.46 1232.57 1644.75 1225.34 1639.43 1227.23 1644.46 1232.57"/><rect class="cls-4" x="1591.85" y="999.9" width="16.21" height="218.97" transform="translate(-280.43 604.68) rotate(-19.71)"/><polygon class="cls-7" points="1553.99 1005.11 1555.39 1009.04 1570.65 1003.58 1569.24 999.65 1553.99 1005.11"/><rect class="cls-6" x="1599.65" y="998.54" width="8.18" height="218.97" transform="translate(-279.76 605.9) rotate(-19.71)"/><rect class="cls-6" x="1570.07" y="1093.19" width="114.18" height="146.86"/><rect class="cls-9" x="1627.16" y="1093.19" width="57.09" height="146.86"/><path class="cls-9" d="M300.09,817.82a25.3,25.3,0,0,0-25.31,25.31v268a25.28,25.28,0,0,0,25.27,25.31H624L431.71,817.82Z"/><path class="cls-13" d="M722.42,817.82H431.71L624,1136.4H722.4a25.29,25.29,0,0,0,25.29-25.31v-48h0V843.13A25.29,25.29,0,0,0,722.42,817.82Z"/><path class="cls-6" d="M509.81,1017.56a43.4,43.4,0,0,0-43.39,43.4v140.58c0,24,19.43,28.72,43.39,28.72s43.4-4.74,43.4-28.72V1061A43.41,43.41,0,0,0,509.81,1017.56Z"/><path class="cls-9" d="M607.8,1189.7H414.69a18.22,18.22,0,0,0-18.23,18.21v32.14H626v-32.12A18.24,18.24,0,0,0,607.8,1189.7Z"/><rect class="cls-4" x="111.94" y="1240.05" width="1637.17" height="56.04"/><rect class="cls-6" x="743.37" y="519.51" width="188.57" height="68.57"/><rect class="cls-6" x="214.8" y="519.51" width="188.57" height="68.57"/><rect class="cls-4" x="843.37" y="286.65" width="61.43" height="190.94"/><rect class="cls-6" x="843.37" y="286.65" width="61.43" height="24.29"/><rect class="cls-6" x="843.37" y="459.03" width="61.43" height="18.57"/><rect class="cls-9" x="774.8" y="230.94" width="68.57" height="246.66"/><rect class="cls-6" x="793.37" y="258.08" width="31.43" height="173.57"/><rect class="cls-6" x="722.41" y="269.03" width="52.38" height="208.57"/><rect class="cls-6" x="466.17" y="153.79" width="94.29" height="323.8"/><polygon class="cls-14" points="479.5 190.94 479.5 346.18 547.12 346.18 547.12 190.94 513.31 211.89 479.5 190.94"/><path class="cls-8" d="M513.31,367.38a25,25,0,1,0,25,25A25,25,0,0,0,513.31,367.38Z"/><path class="cls-5" d="M513.31,372.2a20.17,20.17,0,1,0,20.17,20.17A20.18,20.18,0,0,0,513.31,372.2Z"/><rect class="cls-9" x="371.89" y="153.79" width="94.29" height="323.8"/><polygon class="cls-14" points="385.22 190.94 385.22 346.18 452.84 346.18 452.84 190.94 419.03 211.89 385.22 190.94"/><path class="cls-8" d="M419,367.38a25,25,0,1,0,25,25A25,25,0,0,0,419,367.38Z"/><path class="cls-5" d="M419,372.2a20.17,20.17,0,1,0,20.16,20.17A20.17,20.17,0,0,0,419,372.2Z"/><rect class="cls-6" x="277.6" y="153.79" width="94.29" height="323.8"/><polygon class="cls-14" points="290.93 190.94 290.93 346.18 358.55 346.18 358.55 190.94 324.74 211.89 290.93 190.94"/><path class="cls-8" d="M324.74,367.38a25,25,0,1,0,25,25A25,25,0,0,0,324.74,367.38Z"/><path class="cls-5" d="M324.74,372.2a20.17,20.17,0,1,0,20.17,20.17A20.18,20.18,0,0,0,324.74,372.2Z"/><rect class="cls-9" x="183.31" y="153.79" width="94.29" height="323.8"/><polygon class="cls-14" points="196.65 190.94 196.65 346.18 264.27 346.18 264.27 190.94 230.46 211.89 196.65 190.94"/><path class="cls-8" d="M230.45,367.38a25,25,0,1,0,25,25A25,25,0,0,0,230.45,367.38Z"/><path class="cls-5" d="M230.45,372.2a20.17,20.17,0,1,0,20.17,20.17A20.17,20.17,0,0,0,230.45,372.2Z"/><rect class="cls-9" x="584.94" y="364.07" width="190.95" height="34.01" transform="translate(130.17 933.72) rotate(-74.38)"/><rect class="cls-14" x="111.94" y="477.6" width="909.52" height="41.91"/><rect class="cls-5" x="1886.79" y="923.56" width="380.92" height="41.17"/><rect class="cls-7" x="1922.23" y="964.73" width="345.49" height="990.04"/><rect class="cls-4" x="1961.79" y="1008.13" width="305.93" height="144.59"/><rect class="cls-4" x="1961.79" y="1179.99" width="305.93" height="144.59"/><rect class="cls-4" x="1961.79" y="1351.86" width="305.93" height="144.59"/><rect class="cls-4" x="1961.79" y="1523.73" width="305.93" height="144.59"/><rect class="cls-4" x="1961.79" y="1695.6" width="305.93" height="144.58"/><path class="cls-14" d="M824.48,1755.8l-18.42.81C815.41,1762,824.48,1755.8,824.48,1755.8Z"/><path class="cls-14" d="M732.76,1121.09c-142.81,30.69-122.45,301.13-128.83,550.2l22.49,93.3,179.64-8c-12.66-7.25-25.86-35.68-17.83-129.27,13.95-162.72,9.88-227.72,9.88-227.72L961,1029.12S787.13,1109.42,732.76,1121.09Z"/><polygon class="cls-2" points="775.53 1653.2 795.26 1648.53 791.31 1396.57 775.53 1653.2"/><polygon class="cls-15" points="857.95 2162.52 857.28 2267.72 1122.83 2267.72 1126.43 2154.64 857.95 2162.52"/><polygon class="cls-15" points="1158.01 2162.52 1161.36 2267.72 1427.12 2267.72 1426.5 2170.43 1158.01 2162.52"/><path class="cls-7" d="M1482.63,1756.15l-6.39-.35S1479.79,1762.33,1482.63,1756.15Z"/><path class="cls-7" d="M1528.48,1121.09c-54.37-11.67-228.22-92-228.22-92l162.87,370.5s3.83,65,17.79,227.72c7.87,91.7,5.38,120.84,1.71,128.81l152.19,8.44,22.47-93.3C1650.91,1422.22,1671.26,1151.78,1528.48,1121.09Z"/><polygon class="cls-16" points="1021.06 1076.53 783.32 1165.9 783.05 2025.24 1477.28 2025.49 1477.59 1166.14 1253.2 1045.66 1021.06 1076.53"/><polygon class="cls-17" points="1106.52 1181.13 1070.15 1692.21 1136.24 1807.93 1204.57 1697.32 1160.46 1181.14 1106.52 1181.13"/><path class="cls-18" d="M1132.73,1064.31s-53.89,1.09-67,25.27c-29,53.41,40.81,99.17,40.81,99.17h53.9s57.76-41.48,41.43-81.62C1188.68,1074.79,1132.73,1064.31,1132.73,1064.31Z"/><polygon class="cls-19" points="951.08 1044.64 1034.45 1159.8 1135.73 1060.03 966.36 949.58 951.08 1044.64"/><polygon class="cls-19" points="1129.67 1060.01 1230.95 1159.86 1306.75 1052.39 1299.13 949.7 1129.67 1060.01"/><path class="cls-14" d="M966.32,1037l-172.2,77.73L760.37,1322.7s-12.57,593.06-16.81,945h398.35l11.25-539.87Z"/><polygon class="cls-7" points="915.23 1037.01 870.34 1221.8 942.93 1293.01 936.31 1348.94 1153.16 1727.85 956.72 997.56 915.23 1037.01"/><polygon class="cls-20" points="819.53 2012.69 973.87 2012.74 973.87 1992.4 819.53 1992.34 819.53 2012.69"/><path class="cls-7" d="M1469.71,1115l-172.19-77.81-187.26,690.69.29,539.87h409.19c-4.09-352-16.44-944.77-16.44-944.77Z"/><polygon class="cls-14" points="1348.64 1037.17 1307.21 997.68 1110.26 1727.85 1350.23 1349.06 1320.77 1293.12 1393.39 1221.98 1348.64 1037.17"/><path class="cls-20" d="M1154.6,1801.61a15.26,15.26,0,1,0,15.22,15.27A15.29,15.29,0,0,0,1154.6,1801.61Z"/><path class="cls-20" d="M1154.53,1961.83a15.25,15.25,0,1,0,15.26,15.24A15.23,15.23,0,0,0,1154.53,1961.83Z"/><path class="cls-20" d="M1155.54,2132a15.25,15.25,0,1,0,15.2,15.27A15.32,15.32,0,0,0,1155.54,2132Z"/><polygon class="cls-20" points="1284.86 2012.84 1439.18 2012.92 1439.2 1992.53 1284.86 1992.51 1284.86 2012.84"/><polygon class="cls-20" points="952.71 1740.06 1509.38 1846.65 1509.38 1799.28 960.6 1688.72 952.71 1740.06"/><polygon class="cls-20" points="1192.25 1579.38 1196.84 1635.71 1474.84 1671.89 1473.5 1622 1192.25 1579.38"/><polygon class="cls-20" points="1458.07 1648.53 1477.82 1653.2 1462.03 1396.57 1458.07 1648.53"/><path class="cls-21" d="M861.23,1527.79c-7.22,16.12,19.16,32.87,19.16,32.87s-63.33-17.2-86.09-10.34-35.46,35-38.58,54.93,16.85,56.66,51.59,69,140.83,27.79,150.88,15.49S985.29,1580,985.29,1580l-84.73-57.23S868.48,1511.66,861.23,1527.79Z"/><path class="cls-7" d="M1510.2,1656.57,980.36,1551.82,951.1,1719.2s489.8,95.58,603.56,114.35,99.16-189.13,99.16-189.13Z"/><polygon class="cls-20" points="751.83 1799.28 751.83 1846.65 1308.53 1740.06 1300.62 1688.72 751.83 1799.28"/><path class="cls-21" d="M1344.31,1556c-61.88-4.16-98,16.34-98,16.34s17.05,97.56,27.11,109.83,56.58-37.73,91.36-50.14,68.48-7.43,89.89-10C1474.71,1619.64,1401,1559.79,1344.31,1556Z"/><path class="cls-14" d="M751,1640.75l-143.61,3.67s-14.6,207.89,99.16,189.13,603.54-114.35,603.54-114.35L1280.87,1536Z"/><path class="cls-22" d="M870.57,1657.08c-19.09,2.88-43,2.13-51.29-5.64-5.43-3.94-11.46-20.4-14.16-43-6.07-45-4.08-113.34-4.7-167.13l-15.78.18c.64,53.4-1.47,121.8,4.81,169,3.47,23.76,7.79,42.37,19.62,53,17,13.55,43,11.65,63.59,9.23a242,242,0,0,0,30-6l-4.2-15.18A230.38,230.38,0,0,1,870.57,1657.08Z"/><path class="cls-23" d="M888.32,1645.67c-10.67,2.29-18.06,9.86-16.57,17s11.35,11,22,8.79,18.06-9.89,16.55-17S899,1643.39,888.32,1645.67Z"/><path class="cls-22" d="M1027,1409.08l-15.28,4c13.57,52,33.39,117.44,39.43,162.46,3.26,22.45,1.83,39.94-2.36,45.19-5.93,9.65-28.82,16.71-48,18.94a249.94,249.94,0,0,1-28.37,2l0,15.76a250.76,250.76,0,0,0,30.5-2.16c20.5-3.08,46.1-8.08,58.95-25.64,8.61-13.32,7.91-32.38,5-56.22C1060.46,1526.2,1040.45,1460.78,1027,1409.08Z"/><path class="cls-23" d="M980.73,1633.29c-10.9.63-19.39,7-19,14.29s9.59,12.61,20.47,12,19.37-7,19-14.26S991.6,1632.67,980.73,1633.29Z"/><path class="cls-23" d="M885.69,1273.86C815.06,1284,772,1364.11,783.42,1450.67l20.43-2.75h0c-5.25-39.33,2.12-76.41,17.81-104.09s39.24-45.86,66.78-49.54,54.93,7.61,77.43,30.24,39.3,56.41,44.55,95.73l20.44-2.72C1019.11,1331,956.48,1265,885.69,1273.86Z"/><path class="cls-23" d="M905.89,1004.59c-19,24.76-35.54,56.52-41.87,90.09a218.73,218.73,0,0,0-3.48,40.22c.06,53.32,14.65,154.54,14.79,155l19.76-5.77h0c0-.06-.5-11.16-4.24-29s-10.55-95.49-10.52-120.24a198.21,198.21,0,0,1,3.11-36.59c5.52-29.6,20.65-59,38.1-81.67,17.24-22.69,37.64-38.28,49.37-40.89l-4.79-19.15C946.2,961.89,925.18,979.89,905.89,1004.59Z"/><path class="cls-23" d="M1359.41,1004.59c-19.27-24.71-40.31-42.7-60.18-48l-4.79,19.17c11.71,2.62,32.11,18.2,49.34,40.87,17.46,22.63,32.6,52.07,38.13,81.67,2.14,11.61,3.08,26.67,3.08,43.13,0,66.23-15.11,153.88-15.1,154l19.47,3.4v0c0-.26,15.34-88.51,15.39-157.41,0-17.22-.94-33.24-3.43-46.76C1394.94,1061.1,1378.49,1029.35,1359.41,1004.59Z"/><path class="cls-24" d="M1358.79,1290a71.07,71.07,0,1,0,71.06,71.08A71.07,71.07,0,0,0,1358.79,1290Z"/><path class="cls-20" d="M1358.79,1326.81A34.23,34.23,0,1,0,1393,1361,34.25,34.25,0,0,0,1358.79,1326.81Z"/><path class="cls-21" d="M779.53,606.08c-34,9.89-26.17,61-26.19,80s28.45,86.35,47.52,93.73c48.34,18.75,48.36-51.7,48.36-51.7v-82S813.54,596.21,779.53,606.08Z"/><path class="cls-21" d="M1472.43,606.91c-34-9.87-69.72,39.93-69.72,39.93v82s-.09,72.64,48.28,51.76c18.76-8.13,47.57-74.71,47.6-93.73S1506.45,616.8,1472.43,606.91Z"/><path class="cls-21" d="M1212,246.84l-169.06,0c-122.72-.07-222.21,129.67-222.29,289.74l-.06,220.52c-.07,160.09,166.78,272.31,222.1,289.93,58.22,18.53,115.21,15.91,169.07,0,58.13-17.15,222.23-129.69,222.31-289.75l.06-220.54C1434.16,376.68,1334.71,246.86,1212,246.84Z"/><path class="cls-25" d="M820.59,661.93c22.74-18.31,79.35-326.62,82.25-342.9l-96.94,30.9S800.82,677.88,820.59,661.93Z"/><path class="cls-25" d="M1361.82,338.46s57.39,315.17,75.23,330.18,13.42-281.85,13.42-281.85Z"/><path class="cls-12" d="M990.58,640.48A36.41,36.41,0,1,0,1027,676.93,36.43,36.43,0,0,0,990.58,640.48Z"/><path class="cls-12" d="M1267.89,640.57A36.42,36.42,0,1,0,1304.28,677,36.43,36.43,0,0,0,1267.89,640.57Z"/><path class="cls-25" d="M1360.38,580.31c-42.38-28.38-123.33-18.51-135.68-17.26-10.8,1-32.88,10.69-31.77,21.48s39,18.77,49.8,17.69c41.15-4.07,79.23-8,137.21,5.39C1390.53,610.07,1369.4,586.35,1360.38,580.31Z"/><path class="cls-25" d="M1039.18,564.7c-12.32-1.21-93.29-11.14-135.7,17.21-9,6-30.14,30-19.56,27.29,59.08-15,96.08-9.39,137.19-5.32,10.8,1.1,48.8-6.8,49.89-17.61S1050,565.8,1039.18,564.7Z"/><path class="cls-26" d="M1017.3,871.51c17.73,36.76,43.82,96.73,122.89,96.61,82.9-.13,134.24-126.66,134.24-126.66C1169.86,891,1110.25,896.92,1017.3,871.51Z"/><path class="cls-14" d="M1038.14,876.78c6.61,21.74,37.17,30.69,98.92,26.31,81.78-5.87,100-26,110.11-49.27C1181.23,884,1091.25,888.32,1038.14,876.78Z"/><path class="cls-27" d="M1139,930.94s-15.46-12.27-33.76-12.27-52.71,11.45-52.71,11.45c15.81,21.81,44.76,37.56,85.3,37.75,51.27.26,82.47-41.18,82.47-41.18s-32-7.8-54.26-8C1151.86,918.54,1139,930.94,1139,930.94Z"/><path class="cls-28" d="M1175.92,795.67c-31.66,26.41-76.57,18.4-89.75,0,0,0,13.2,47.45,44.87,46S1207.59,769.26,1175.92,795.67Z"/><path class="cls-25" d="M1214,159.47C1073.47,127,995.54,181.33,995.54,181.33s-20.63-16.53-4.71-37.79c-38.94,5.33-49.58,45.45-62,76.16-38.94-12.41-70.22,4.12-70.22,4.12s31.28,24.18-2.35,51.94c-94.44,77.93-49.59,168.8-49.59,168.8S841.46,531.1,858,513.63C920,448.1,968.71,413.56,979.34,364c0,0,65.88,85.34,154.64,105.36,73.17,16.54,163.76,30.71,202.14,23-33.08-33.07-42.51-95.65-42.51-95.65s105.14,192.65,155.81,49.59C1503.18,294.65,1314.42,182.71,1214,159.47Z"/><path class="cls-29" d="M1080,641.2s0,81-38.82,100.68c-30.94,15.65-117.68,14.06-141.43-8.09s-33.83-100.27-33.83-100.27"/><path class="cls-30" d="M858.78,639.46s144.92-29.63,228.35,3"/><line class="cls-31" x1="872.38" y1="649.58" x2="796.04" y2="597.37"/><path class="cls-29" d="M1179,641.2s0,81.36,39,101.06c31,15.71,118.13,14.12,142-8.12s34-100.64,34-100.64"/><path class="cls-32" d="M1171.81,642.48c90-30,229.24-3,229.24-3"/><line class="cls-31" x1="1387.36" y1="649.58" x2="1463.78" y2="597.37"/><path class="cls-33" d="M1087.13,656.23s26.09-13.29,44.08-13.29c21.75,0,40.6,10.94,40.6,10.94"/></svg>